<svg xmlns="http://www.w3.org/2000/svg" viewBox="0 0 1389.83 231.26"><defs><style>.cls-1,.cls-2,.cls-3,.cls-4{fill:#ff6f61;}.cls-1{opacity:0.25;}.cls-1,.cls-2,.cls-3{isolation:isolate;}.cls-2{opacity:0.15;}.cls-3{opacity:0.65;}</style></defs><title>Logo</title><g id="Layer_2" data-name="Layer 2"><g id="Layer_1-2" data-name="Layer 1"><ellipse class="cls-1" cx="31.11" cy="62.77" rx="8.07" ry="7.71"/><ellipse class="cls-1" cx="134.83" cy="7.71" rx="8.07" ry="7.71"/><ellipse class="cls-1" cx="31.11" cy="168.49" rx="8.07" ry="7.71"/><ellipse class="cls-1" cx="134.83" cy="223.55" rx="8.07" ry="7.71"/><path class="cls-2" d="M37.75,122.66a19.61,19.61,0,0,1-18.16,11.7C8.77,134.35,0,126,0,115.63S8.77,96.91,19.59,96.91a19.67,19.67,0,0,1,17.72,10.73l2.87,1.55a18.29,18.29,0,0,0,5.86,2c12.63,2,25.1-4.36,30.47-15.52L80.67,87v57.26L76,134.67A28.63,28.63,0,0,0,47,119a18.22,18.22,0,0,0-7.48,2.56Z"/><path class="cls-3" d="M78.93,40.55A20.05,20.05,0,0,1,58.48,33,18.2,18.2,0,0,1,63.29,7a20.17,20.17,0,0,1,27.28,4.6,18,18,0,0,1,1,20l.32,3.14a16.39,16.39,0,0,0,1.67,5.72c5.54,11,18.09,17.15,30.66,15l9.92-1.72L85,86.54l5.63-9.21A26.11,26.11,0,0,0,87.33,45.7a17.71,17.71,0,0,0-6.49-4.39Z"/><path class="cls-2" d="M185.6,32.5A18,18,0,0,1,186,11.57,20.17,20.17,0,0,1,213.28,7,18.2,18.2,0,0,1,218.09,33a20,20,0,0,1-19.36,7.72l-3,1.36a17.76,17.76,0,0,0-5.06,3.46,26.23,26.23,0,0,0-4.23,32.65l5.09,8.32L142.46,53.69l11,1.91a28.73,28.73,0,0,0,30-13.8,16.35,16.35,0,0,0,2.1-7.33Z"/><path class="cls-3" d="M91,198.77a18,18,0,0,1-.39,20.93,20.17,20.17,0,0,1-27.28,4.6,18.2,18.2,0,0,1-4.81-26.07,20,20,0,0,1,19.36-7.72l3-1.36a17.77,17.77,0,0,0,5.06-3.46A26.23,26.23,0,0,0,90.1,153L85,144.72l49.09,32.85-11-1.91a28.73,28.73,0,0,0-30,13.8,16.34,16.34,0,0,0-2.1,7.33Z"/><path class="cls-2" d="M197.64,190.71a20.05,20.05,0,0,1,20.45,7.51,18.2,18.2,0,0,1-4.81,26.07,20.17,20.17,0,0,1-27.28-4.6,18,18,0,0,1-1-20l-.32-3.14a16.39,16.39,0,0,0-1.67-5.72c-5.54-11-18.09-17.15-30.66-15l-9.92,1.72,49.09-32.85-5.63,9.21a26.11,26.11,0,0,0,3.32,31.63,17.72,17.72,0,0,0,6.49,4.39Z"/><path class="cls-4" d="M138,179.5c35.84,0,54.21-22.82,59.08-41.66l-23.23-6.74c-3.42,11.41-14,25.07-35.84,25.07-20.53,0-39.62-14.35-39.62-40.45,0-27.83,20.17-41,39.26-41,22.15,0,32.06,13,35.12,24.72l23.41-7.09c-5-19.88-23.23-40.62-58.54-40.62-34.22,0-65,24.89-65,64S102.32,179.5,138,179.5Z"/><path class="cls-4" d="M271.7,131.92v5c0,19.61-10.92,32.63-30.79,32.63s-30.85-13-30.85-32.56v-5c0-18.6,11-32.25,30.85-32.25S271.7,113.32,271.7,131.92Zm-44.75,0v5.21c0,10.6,4.19,19.36,14,19.36s13.9-8.7,13.9-19.36v-5.21c0-11-4.25-19.23-13.9-19.23S226.95,121,226.95,131.92Z"/><path class="cls-4" d="M276.77,100.94h17.84l13.71,50.72H309l15.17-50.72h17.2L318,168.29H299Z"/><path class="cls-4" d="M358.66,75.42c5.21,0,9.46,3.62,9.46,8.82S363.86,93,358.66,93s-9.46-3.55-9.46-8.76S353.52,75.42,358.66,75.42Zm-8.32,25.52H367v67.35H350.34Z"/><path class="cls-4" d="M426.58,110.78h.63V77.07H444v91.22H427.53V157.88h-.7c-3.17,6.92-10.22,11.24-19.42,11.24-16.38,0-25.77-12.19-25.77-31.74v-5.65c0-19.23,9.71-31.67,25.77-31.67C416.55,100.05,423.6,104.43,426.58,110.78Zm-27.8,21.52v4.63c0,12.63,5.9,18.85,14.09,18.85,8.82,0,14.47-6.54,14.47-18.79v-4.7c0-11.81-5.71-18.85-14.6-18.85C404.68,113.45,398.78,119.67,398.78,132.3Z"/><path d="M455.52,168.29l31-86.46h7l31,86.46h-7.36l-9.78-28.18H472.6l-9.78,28.18Zm34.4-77.89-15.36,43.86h30.85L490.18,90.4Z"/><path d="M545.34,157.18h-.25v32.56h-6.86V102.28h6.6v11.55h.25A22.69,22.69,0,0,1,566,101.2c14.6,0,25.52,11,25.52,29.26V140c0,19-11.62,29.33-25.83,29.33C554.36,169.37,548.07,162.7,545.34,157.18Zm39.29-18.09V131c0-15-8-23.74-19.36-23.74C552.39,107.29,545,118,545,131v8.19c0,14,7.87,24.06,20.5,24.06C575.94,163.21,584.64,155.28,584.64,139.09Z"/><path d="M616.82,157.18h-.25v32.56h-6.86V102.28h6.6v11.55h.25a22.69,22.69,0,0,1,20.88-12.63c14.6,0,25.52,11,25.52,29.26V140c0,19-11.62,29.33-25.83,29.33C625.83,169.37,619.55,162.7,616.82,157.18Zm39.29-18.09V131c0-15-8-23.74-19.36-23.74-12.89,0-20.31,10.66-20.31,23.68v8.19c0,14,7.87,24.06,20.5,24.06C647.41,163.21,656.11,155.28,656.11,139.09Z"/><path d="M687.23,150.18V148h21.53v2.19Z"/><path d="M732.55,149.49c0,9.33,4.38,17.67,15.07,17.67,8.31,0,13.77-5.26,13.77-11.79h2.39v.1c0,7.45-6.29,13.91-16.17,13.91-12.48,0-17.5-9.16-17.5-20.2V141c0-11,5.3-20.3,17.33-20.3,10.42,0,16,7.45,16,14v.14h-2.36c0-5.47-4.85-11.93-13.6-11.93-10.36,0-14.9,8.31-14.9,17.71Z"/><path d="M800.84,148.09v5.23c0,10.12-6.22,15.59-14.36,15.59s-14.29-5.5-14.29-15.59v-5.23c0-10.15,6-15.72,14.29-15.72C794.55,132.37,800.84,138.08,800.84,148.09Zm-26.25.31V153c0,9,5.06,13.64,11.93,13.64s11.89-4.55,11.89-13.64V148.4c0-9-5.16-13.81-11.93-13.81S774.59,139.31,774.59,148.4Z"/><path d="M806.11,133h2.63l11.66,32.2h.17L832.29,133h2.53l-13.09,35.31h-2.56Z"/><path d="M843.43,121.29a2.27,2.27,0,0,1,2.29,2.29,2.27,2.27,0,1,1-2.29-2.29ZM842.23,133h2.39v35.31h-2.39Z"/><path d="M880.1,140h.14V119.24h2.39v49h-2.36v-7.11h-.14c-.72,2.19-3.83,7.72-11.72,7.72S855,163.1,855,153.9v-6.46c0-10,6.36-15.07,13.5-15.07C875.8,132.37,879.11,137.12,880.1,140Zm-22.7,8v5.61c0,8.48,5,13.16,11.14,13.16,7.55,0,11.69-6.25,11.69-13.09v-5.74c0-7.49-4.55-13.23-11.69-13.23C862.84,134.62,857.41,138.73,857.41,147.92Z"/><path d="M910.15,149.49c0,9.33,4.38,17.67,15.07,17.67,8.31,0,13.77-5.26,13.77-11.79h2.39v.1c0,7.45-6.29,13.91-16.17,13.91-12.48,0-17.5-9.16-17.5-20.2V141c0-11,5.3-20.3,17.33-20.3,10.42,0,16,7.45,16,14v.14h-2.36c0-5.47-4.85-11.93-13.6-11.93-10.36,0-14.9,8.31-14.9,17.71Z"/><path d="M978.44,148.09v5.23c0,10.12-6.22,15.59-14.36,15.59s-14.29-5.5-14.29-15.59v-5.23c0-10.15,6-15.72,14.29-15.72C972.15,132.37,978.44,138.08,978.44,148.09Zm-26.25.31V153c0,9,5.06,13.64,11.93,13.64S976,162.14,976,153V148.4c0-9-5.16-13.81-11.93-13.81S952.19,139.31,952.19,148.4Z"/><path d="M988.56,133H991v6h.14c.75-2.6,3.59-6.63,9.88-6.63s9.6,3.62,10.53,7.45h.17c.62-2.67,3.83-7.45,10.73-7.45,6.53,0,11.38,4,11.38,11.76v24.17h-2.39V144.71c0-6.77-3.86-10.08-9.19-10.08-6.49,0-9.84,5.2-9.84,10.53v23.14H1010V144.91c0-6.63-3.55-10.29-9.19-10.29-6.46,0-9.81,5-9.81,11.11v22.56h-2.43Z"/><path d="M1045.26,133h2.43v6h.14c.75-2.6,3.59-6.63,9.88-6.63s9.6,3.62,10.53,7.45h.17c.62-2.67,3.83-7.45,10.73-7.45,6.53,0,11.38,4,11.38,11.76v24.17h-2.39V144.71c0-6.77-3.86-10.08-9.19-10.08-6.49,0-9.84,5.2-9.84,10.53v23.14h-2.39V144.91c0-6.63-3.55-10.29-9.19-10.29-6.46,0-9.81,5-9.81,11.11v22.56h-2.43Z"/><path d="M1127.8,168.29h-2.39v-6.84h-.14c-1.2,3.35-4.79,7.45-11.66,7.45-6.7,0-12-3.9-12-12V133H1104V156.5c0,6.25,3.83,10.15,9.88,10.15,7.55,0,11.52-6.19,11.52-12.61V133h2.39Z"/><path d="M1139.6,133H1142v6.84h.14c1.13-3.52,4.79-7.45,11.52-7.45,7,0,12.17,4.55,12.17,12.75v23.17h-2.39v-22.9c0-6.12-3.62-10.77-10-10.77-7.59,0-11.38,6-11.38,12.17v21.5h-2.43Z"/><path d="M1178.66,121.29a2.27,2.27,0,0,1,2.29,2.29,2.27,2.27,0,1,1-2.29-2.29Zm-1.2,11.69h2.39v35.31h-2.39Z"/><path d="M1193.43,124.44h2.39V133h9v2.12h-9V161c0,4.31,1.81,5.5,6.29,5.5a17.06,17.06,0,0,0,3.21-.27v2a16.15,16.15,0,0,1-3.62.34c-6.32,0-8.27-2.15-8.27-8.17V135.1h-5.74V133h5.74Z"/><path d="M1225.9,168.29l-1.71,4.51c-1.88,5-4.85,7.18-9.13,7.18a13.23,13.23,0,0,1-2.94-.27v-2.15a15.63,15.63,0,0,0,2.84.24c3.18,0,5.64-1.91,6.9-5.43l1.33-3.62L1210,133h2.67l11.72,32.71h.14L1236.05,133h2.56Z"/><path d="M1256.63,168.29l16.65-46.45h2.6l16.68,46.45H1290l-5.57-15.83h-19.62l-5.57,15.83Zm17.88-43.48-9,25.57h18.15l-9-25.57Z"/><path d="M1301.1,119.24h2.39v49h-2.39Z"/><path d="M1314.12,152.7V149c0-10.87,5.43-16.61,13.64-16.61s13.67,5.74,13.67,16.68v1.71h-24.92v1.88c0,9.09,4.55,14,11.66,14,6.67,0,9.88-4,10.32-7.25h2.43c-.48,4.14-4.41,9.47-12.78,9.47C1319.42,168.91,1314.12,163,1314.12,152.7Zm24.88-4.1v-.14c0-8.75-4.48-13.88-11.25-13.88s-11.25,5.13-11.25,13.88v.14Z"/><path d="M1351.48,133h2.43v6.87h.14c1-3.66,3.59-7.42,10-7.42a13.59,13.59,0,0,1,2.7.27V135a16.92,16.92,0,0,0-3-.31c-6.46,0-9.88,5.16-9.88,13.16v20.44h-2.43Z"/><path d="M1377.93,124.44h2.39V133h9v2.12h-9V161c0,4.31,1.81,5.5,6.29,5.5a17.06,17.06,0,0,0,3.21-.27v2a16.15,16.15,0,0,1-3.62.34c-6.32,0-8.27-2.15-8.27-8.17V135.1h-5.74V133h5.74Z"/></g></g></svg>